<svg fill="#3398dc" id="Capa_1" enable-background="new 0 0 346.001 346.001" height="512" viewBox="0 0 346.001 346.001" width="512" xmlns="http://www.w3.org/2000/svg"><g><g><g><path d="m341.912 103.482-177.6-81.2c-30.177-13.798-65.826-.521-79.624 29.656s-.521 65.826 29.656 79.624l38.888 17.784-2.232 4.872c-4.03 8.835-4.542 18.873-1.432 28.072l-11.892 26c-4.168 9.064-13.223 14.881-23.2 14.904h-58.908v-9.048c-.029-22.615-18.353-40.941-40.968-40.972h-7.6c-3.864-.002-6.998 3.128-7 6.992v.008 142c-.002 3.864 3.128 6.998 6.992 7h.008 7.6c22.612-.031 40.935-18.352 40.968-40.964v-9.052h55.504c33.957-.056 64.782-19.856 78.952-50.716l10.444-22.836c9.004-3.676 16.269-10.645 20.316-19.488l2.216-4.876 37.92 17.344c3.518 1.604 7.671.056 9.28-3.46l2.028-4.44c3.175.821 6.44 1.245 9.72 1.26 19.088-.686 36.061-12.338 43.56-29.904 5.45-11.549 6.402-24.714 2.672-36.928l14.596-9.376c3.255-2.085 4.204-6.415 2.119-9.67-.725-1.132-1.76-2.031-2.983-2.59zm-300.344 184.728c-.02 14.886-12.082 26.95-26.968 26.972h-.6v-128h.6c14.891.015 26.96 12.081 26.98 26.972v74.056zm69.504-23.048h-55.492v-27.96h58.904c15.455-.022 29.485-9.034 35.932-23.08l7.912-17.3c6.697 6.968 15.8 11.117 25.452 11.6l-6.492 14.192c-11.88 25.888-37.733 42.5-66.216 42.548zm96.98-84.86c-5.595 12.235-20.049 17.619-32.284 12.024s-17.619-20.049-12.024-32.284l2.228-4.88 44.312 20.264zm52.344 2.64-37.908-17.336-57.06-26.096-45.256-20.696c-23.144-10.584-33.326-37.926-22.742-61.07s37.926-33.326 61.07-22.742l165.924 75.88-8.54 5.488-.068.036-33.676 21.636c-1.128.723-2.024 1.757-2.58 2.976zm52.376-26.716c-6.8 14.9-21.268 23.452-34.576 21.452l13.24-28.956 24.36-15.648c1.393 7.845.337 15.929-3.024 23.152z"/><path d="m267.772 99.798-63.34-28.956c-3.548-1.536-7.669.095-9.205 3.642-1.49 3.442-.003 7.447 3.373 9.082l63.34 28.968c3.517 1.607 7.671.059 9.278-3.458s.059-7.671-3.458-9.278z"/></g></g></g></svg>